<?xml version="1.0" encoding="UTF-8" standalone="no"?><!DOCTYPE svg PUBLIC "-//W3C//DTD SVG 1.1//EN" "http://www.w3.org/Graphics/SVG/1.1/DTD/svg11.dtd"><svg width="100%" height="100%" viewBox="0 0 57 50" version="1.1" xmlns="http://www.w3.org/2000/svg" xmlns:xlink="http://www.w3.org/1999/xlink" xml:space="preserve" xmlns:serif="http://www.serif.com/" style="fill-rule:evenodd;clip-rule:evenodd;stroke-linejoin:round;stroke-miterlimit:2;"><rect id="Artboard1" x="0" y="0" width="57" height="49.328" style="fill:none;"/><clipPath id="_clip1"><rect x="0" y="0" width="57" height="49.328"/></clipPath><g clip-path="url(#_clip1)"><g><path d="M43.362,46.863l4.813,-7.786l4.494,7.786l-9.307,-0Zm-34.49,-7.865l4.858,7.865l-9.398,-0l4.54,-7.865Zm19.63,-33.998l5.196,9.006l-10.394,-0.004l5.198,-9.002Zm8.242,31.744l5.019,-8.772l5.067,8.777l-10.086,-0.005Zm-1.188,2.075l4.97,8.044l-9.574,-0l4.604,-8.044Zm-14.025,-0.077l4.645,8.121l-9.665,-0l5.02,-8.121Zm-1.166,-2.043l-10.165,0l5.106,-8.844l5.059,8.844Zm6.812,-12.466l-9.779,-0.002l4.726,-8.184l5.053,8.186Zm1.35,-0.039l-5.575,-9.026l11.153,0.003l-5.578,9.023Zm1.348,0.04l5.03,-8.142l4.701,8.142l-9.731,0Zm-1.312,22.103l-11.304,-19.774l22.618,0.007l-11.314,19.767Zm-13.462,0.526l-5.555,-8.997l11.153,0.003l-5.562,8.994l-0.036,-0Zm26.797,-0l-5.528,-8.952l11.134,0.004l0.008,0.016l-5.521,8.932l-0.093,-0Zm14.019,0.624l-26.332,-45.614l-1.083,-1.873l-1.083,1.873l-26.336,45.614l-1.083,1.877l57,0l-1.083,-1.877Z" style="fill:#71767a;fill-rule:nonzero;"/></g></g></svg>