<?xml version="1.0" encoding="UTF-8" standalone="no"?><!DOCTYPE svg PUBLIC "-//W3C//DTD SVG 1.1//EN" "http://www.w3.org/Graphics/SVG/1.1/DTD/svg11.dtd"><svg width="100%" height="100%" viewBox="0 0 190 167" version="1.1" xmlns="http://www.w3.org/2000/svg" xmlns:xlink="http://www.w3.org/1999/xlink" xml:space="preserve" xmlns:serif="http://www.serif.com/" style="fill-rule:evenodd;clip-rule:evenodd;stroke-linejoin:round;stroke-miterlimit:2;"><rect id="Artboard1" x="0" y="0" width="190" height="164.427" style="fill:none;"/><g><g><path d="M144.54,156.21l16.043,-25.953l14.98,25.953l-31.023,0Zm-114.967,-26.217l16.194,26.217l-31.327,0l15.133,-26.217Zm65.434,-113.326l17.32,30.02l-34.647,-0.014l17.327,-30.006Zm27.473,105.813l16.73,-29.24l16.89,29.257l-33.62,-0.017Zm-3.96,6.917l16.567,26.813l-31.914,0l15.347,-26.813Zm-46.75,-0.257l15.483,27.07l-32.216,0l16.733,-27.07Zm-3.887,-6.81l-33.883,0l17.02,-29.48l16.863,29.48Zm22.707,-41.553l-32.597,-0.007l15.754,-27.28l16.843,27.287Zm4.5,-0.13l-18.583,-30.087l37.176,0.01l-18.593,30.077Zm4.493,0.133l16.767,-27.14l15.67,27.14l-32.437,0Zm-4.373,73.677l-37.68,-65.914l75.393,0.024l-37.713,65.89Zm-44.873,1.753l-18.517,-29.99l37.177,0.01l-18.54,29.98l-0.12,0Zm89.323,0l-18.427,-29.84l37.114,0.013l0.026,0.054l-18.403,29.773l-0.31,0Zm46.73,2.08l-87.773,-152.047l-3.61,-6.243l-3.61,6.243l-87.787,152.047l-3.61,6.257l190,-0l-3.61,-6.257Z" style="fill:#71767a;fill-rule:nonzero;"/></g></g></svg>