<?xml version="1.0" encoding="UTF-8" standalone="no"?><!DOCTYPE svg PUBLIC "-//W3C//DTD SVG 1.1//EN" "http://www.w3.org/Graphics/SVG/1.1/DTD/svg11.dtd"><svg width="100%" height="100%" viewBox="0 0 1042 1042" version="1.1" xmlns="http://www.w3.org/2000/svg" xmlns:xlink="http://www.w3.org/1999/xlink" xml:space="preserve" xmlns:serif="http://www.serif.com/" style="fill-rule:evenodd;clip-rule:evenodd;stroke-linejoin:round;stroke-miterlimit:2;"><rect id="Artboard1" x="0" y="0" width="1041.67" height="1025.62" style="fill:none;"/><g><g><path d="M770.706,895.74l80.919,-131.513l75.557,131.513l-156.476,0Zm-579.877,-132.851l81.68,132.851l-158.009,0l76.329,-132.851Zm330.04,-574.264l87.359,152.122l-174.754,-0.071l87.395,-152.051Zm138.57,536.193l84.383,-148.17l85.191,148.256l-169.574,-0.086Zm-19.974,35.051l83.562,135.871l-160.97,0l77.408,-135.871Zm-235.801,-1.302l78.095,137.173l-162.493,0l84.398,-137.173Zm-19.605,-34.509l-170.901,-0l85.846,-149.386l85.055,149.386Zm114.531,-210.564l-164.415,-0.036l79.461,-138.238l84.954,138.274Zm22.697,-0.659l-93.73,-152.462l187.511,0.051l-93.781,152.411Zm22.662,0.674l84.571,-137.529l79.037,137.529l-163.608,-0Zm-22.056,373.348l-190.053,-334.01l380.272,0.121l-190.219,333.889Zm-226.334,8.883l-93.397,-151.97l187.516,0.051l-93.513,151.919l-0.606,0Zm450.533,0l-92.943,-151.21l187.198,0.066l0.131,0.274l-92.822,150.87l-1.564,0Zm235.7,10.541l-442.715,-770.479l-18.208,-31.635l-18.209,31.635l-442.785,770.479l-18.208,31.706l958.333,0l-18.208,-31.706Z" style="fill:#71767a;fill-rule:nonzero;"/></g></g></svg>